PathFileType	4	(X/Y/Z)	\\Move.snu.ac.kr\motion\Animal\091204_091205_Bird\091205_bird\Project 2\Capture day 2\Session 1\pigeon_028.trc
DataRate	CameraRate	NumFrames	NumMarkers	Units	OrigDataRate	OrigDataStartFrame	OrigNumFrames
240.0	240.0	24	14	mm	240.0	160	6061
Frame#	Time	14MarkersBird:Head			14MarkersBird:C_back			14MarkersBird:Spine			14MarkersBird:L-shoulder			14MarkersBird:L-elbow			14MarkersBird:L-wrist			14MarkersBird:L-hand			14MarkersBird:R-shoulder			14MarkersBird:R-elbow			14MarkersBird:R-Wrist			14MarkersBird:R-hand			14MarkersBird:C_Tail			14MarkersBird:L-Tale			14MarkersBird:R-Tale			
		X1	Y1	Z1	X2	Y2	Z2	X3	Y3	Z3	X4	Y4	Z4	X5	Y5	Z5	X6	Y6	Z6	X7	Y7	Z7	X8	Y8	Z8	X9	Y9	Z9	X10	Y10	Z10	X11	Y11	Z11	X12	Y12	Z12	X13	Y13	Z13	X14	Y14	Z14	

4454	18.554	-615.79547	879.07538	1030.44507	-661.53925	875.40399	1067.91125	-703.86005	861.00531	1100.28174	-651.79578	874.80157	1031.54187	-680.13391	865.49512	1021.56671	-650.34540	850.84387	993.42462	-639.76337	831.92792	978.09973	-621.22040	863.11511	1066.78503	-619.23566	846.57343	1087.17737	-594.45831	830.83691	1058.93872	-579.89618	800.99707	1041.08789	-795.97260	789.32556	1141.43518	-791.68201	843.85822	1045.55176	-688.00079	796.39862	1193.18481	
4455	18.558	-608.91351	875.20740	1023.47198	-654.44818	873.35614	1060.94861	-696.77429	858.49316	1093.01807	-644.55023	872.06714	1024.48535	-675.17297	862.99896	1016.91144	-642.71881	852.92169	989.77417	-628.54382	833.16089	978.01605	-614.55237	860.79974	1060.07886	-615.18158	845.57373	1083.25793	-589.56323	834.36438	1053.91150	-577.80518	805.68018	1031.12463	-788.31628	787.31494	1136.33777	-785.41333	838.38086	1039.78149	-682.08820	794.35120	1186.71826	
4456	18.563	-601.68976	871.12665	1016.37903	-647.06787	870.90210	1053.76941	-689.48669	855.92694	1085.66345	-637.13641	869.08173	1017.58075	-670.50177	862.11432	1012.90167	-637.50885	856.89801	985.01154	-621.71008	837.16870	974.84302	-607.77399	858.11108	1053.41577	-611.60449	846.12427	1080.29065	-583.28973	838.67633	1052.17822	-572.86218	810.68213	1027.14844	-780.58490	784.60089	1130.21143	-778.79602	833.23395	1033.73438	-676.11218	791.54565	1179.68286	
4457	18.567	-594.18365	866.97443	1009.28693	-639.48126	867.97644	1046.44934	-682.22400	853.53864	1078.41833	-629.67273	865.76685	1010.82526	-665.55249	862.53406	1009.55164	-633.98541	861.77124	979.58679	-618.89624	841.86810	968.85999	-600.89154	855.15662	1046.84985	-608.56531	848.13196	1077.25500	-576.33423	843.21667	1052.58362	-566.10760	814.52899	1028.22156	-772.80841	781.14478	1123.12524	-771.89093	828.88098	1027.33447	-670.03528	788.48370	1172.34668	
4458	18.571	-586.49219	862.90027	1002.33270	-631.77057	864.63477	1039.09106	-674.97864	851.01599	1071.18652	-622.22876	862.14886	1004.17444	-659.72754	863.63806	1006.89258	-631.28406	866.96582	974.21851	-619.43591	846.34216	961.43201	-594.00629	852.21747	1040.34729	-606.02338	851.25977	1072.99475	-569.62488	847.96960	1053.93762	-558.99078	817.20892	1033.25989	-765.02631	777.09320	1115.30884	-764.73071	825.62720	1020.42462	-663.69342	785.70935	1165.04968	
4459	18.575	-578.69653	858.96130	995.57965	-624.00531	861.00391	1031.77844	-667.73303	848.25494	1063.92297	-614.77606	858.36938	997.58356	-652.63770	864.66766	1004.88239	-628.57281	872.12030	969.64020	-622.56213	850.73309	954.47363	-587.26666	849.60205	1033.76489	-603.76245	854.84094	1066.66431	-564.05371	853.12219	1055.07361	-552.79999	819.89746	1041.23169	-757.30188	772.70123	1107.03125	-757.27789	823.48889	1012.84167	-656.86206	783.58685	1158.06726	
4460	18.579	-570.85925	855.16010	989.03265	-616.20801	857.23108	1024.53040	-660.53802	845.25336	1056.64929	-607.22345	854.61877	991.02039	-644.22046	864.99255	1003.35791	-625.10797	876.81537	966.39221	-627.17474	855.64429	949.81390	-580.73572	847.43658	1026.93689	-601.45868	858.01617	1058.08472	-560.13110	858.70386	1054.84131	-548.45325	824.27960	1050.86389	-749.75903	768.28333	1098.55457	-749.43793	822.16077	1004.49756	-649.34131	782.21552	1151.50439	
4461	18.583	-563.02881	851.51044	982.69189	-608.39301	853.57800	1017.35559	-653.44910	842.00110	1049.39355	-599.51538	851.02625	984.47528	-634.70477	864.27496	1002.00067	-620.36694	880.63776	964.51941	-631.62616	861.63910	948.48560	-574.32831	845.56171	1019.82465	-598.79150	860.03687	1047.78821	-557.73157	864.42743	1052.36084	-546.49408	831.73328	1060.37048	-742.56726	764.12610	1090.07849	-741.15576	821.17999	995.45135	-641.04865	781.50537	1145.31042	
4462	18.587	-555.22015	848.01123	976.53986	-600.61859	849.98523	1010.22900	-646.48181	838.49579	1042.17859	-591.70087	847.57947	977.97388	-624.51581	862.48901	1000.33710	-614.28107	883.42090	963.52264	-634.09131	868.93304	950.32465	-567.88916	843.60883	1012.58569	-595.46259	860.51117	1036.72034	-556.19666	869.80762	1047.40332	-547.03662	842.66199	1067.55798	-735.86731	760.39642	1081.68091	-732.54474	820.24750	986.00427	-632.12079	781.34204	1139.39587	
4463	18.592	-547.40247	844.61298	970.52856	-592.96802	846.42657	1003.19299	-639.56885	834.69177	1034.98425	-583.89734	844.15759	971.54938	-614.13812	859.85229	997.82397	-607.25787	885.33759	962.70490	-633.28418	877.23767	954.25287	-561.28705	841.23413	1005.47119	-591.20624	859.49963	1025.80090	-554.74493	874.43378	1040.44592	-549.61920	856.29620	1070.38989	-729.70245	757.12677	1073.36255	-723.91467	819.37762	976.70239	-622.97931	781.66205	1133.68823	
4464	18.596	-539.54108	841.23022	964.59674	-585.48315	842.88849	996.30426	-632.58502	830.48120	1027.75244	-576.20374	840.64240	965.20422	-603.94403	856.73584	994.05859	-599.87494	886.68402	961.50201	-628.80731	885.81189	958.94946	-554.45538	838.30353	998.66260	-585.87775	857.46149	1015.60712	-552.80615	878.13251	1032.27954	-553.21338	871.01105	1067.79443	-724.02325	754.28253	1065.18262	-715.64142	818.68445	968.14832	-614.24841	782.32758	1128.09436	
4465	18.600	-531.65845	837.77924	958.69501	-578.18787	839.33728	989.61298	-625.47321	825.77924	1020.46747	-568.66772	836.98511	958.93451	-594.08478	853.54462	988.96899	-592.56073	887.58057	959.50421	-621.02557	893.64868	963.19275	-547.40051	834.88611	992.21832	-579.44379	854.97144	1006.27942	-550.00958	880.84918	1023.57568	-556.42657	884.89331	1060.06628	-718.72168	751.82886	1057.32324	-707.94403	817.99469	960.64032	-606.44598	782.86237	1122.44702	
4466	18.604	-523.84924	834.21252	952.80066	-571.10480	835.73865	983.16919	-618.18213	820.56006	1013.11615	-561.29907	833.22845	952.75281	-584.56494	850.56647	982.75897	-585.54169	887.89490	956.25238	-610.90552	899.73584	965.77594	-540.18799	831.14337	986.12164	-571.88855	852.35858	997.63605	-546.00867	882.41425	1014.84656	-557.72864	896.31940	1048.66235	-713.65472	749.74353	1050.03552	-700.74670	816.79517	953.96283	-599.68152	782.44629	1116.54858	
4467	18.608	-516.22388	830.52692	946.91321	-564.25677	832.05798	977.02271	-610.89471	815.04828	1005.85358	-554.08856	829.47540	946.67419	-575.49377	847.85034	975.69019	-578.98608	887.33618	951.21533	-599.89838	903.42181	965.45874	-532.90039	827.21161	980.33008	-563.28925	849.61945	989.51630	-540.42084	882.49951	1006.66650	-555.68622	904.30267	1035.82190	-708.64075	747.96161	1043.48914	-693.70734	814.61798	947.52094	-593.65021	780.33777	1110.28784	
4468	18.612	-508.83536	826.75488	941.04236	-557.66626	828.26111	971.22290	-604.66956	810.19568	999.50916	-547.02185	825.82233	940.68677	-567.19324	845.23456	967.92847	-573.12329	885.54486	943.96875	-589.67023	904.59491	961.12793	-525.58160	823.14374	974.78021	-554.02234	846.61542	982.18933	-532.96167	880.71521	999.79852	-549.26672	908.40588	1024.16479	-703.47998	746.32611	1037.61304	-686.38849	811.42743	940.68634	-587.84692	776.30542	1103.69080	
4469	18.617	-501.65582	822.95569	935.19025	-551.34619	824.32098	965.79309	-598.64032	805.84705	993.48309	-540.08459	822.28760	934.75287	-559.98962	842.47986	959.48138	-568.28668	882.08160	934.41235	-581.66626	903.43524	952.01532	-518.22809	818.92389	969.37006	-544.56110	843.19080	976.23572	-523.55713	876.72791	995.01105	-538.20544	908.30432	1016.21094	-698.00800	744.55457	1032.00745	-678.49591	807.61389	933.13062	-581.81274	770.67316	1096.85620	
4470	18.621	-494.60913	819.21301	929.33618	-545.17535	820.19440	960.42896	-592.32990	801.82385	987.44574	-533.25232	818.79742	928.81372	-553.95587	839.36780	950.19855	-564.67664	876.48492	922.72986	-576.60718	899.91064	937.92554	-510.80170	814.53412	963.95313	-535.07147	839.16547	972.00824	-512.33698	870.30078	992.63007	-523.11182	903.49951	1013.40613	-692.15253	742.29047	1026.06787	-670.04004	803.61298	924.95764	-575.32367	764.08197	1089.88660	
4471	18.625	-487.59756	815.59998	923.42560	-538.86261	815.84601	954.45221	-585.74554	798.11798	981.38391	-526.46936	815.25317	922.76855	-548.88947	835.66504	939.90314	-561.92755	868.43060	909.21027	-574.06775	893.49170	919.39264	-503.24457	809.99384	958.38153	-525.35248	834.32520	969.31140	-499.59705	861.28571	992.12421	-505.03214	893.51703	1015.10114	-685.92084	739.23578	1019.28357	-661.32935	799.49689	916.54089	-568.44751	757.18195	1082.86218	
4472	18.629	-480.52582	812.15558	917.38971	-532.44373	811.48975	948.08832	-578.91437	794.72131	975.28394	-519.65466	811.59650	916.47821	-544.39905	831.08081	928.56506	-558.98260	857.82037	894.25922	-572.39618	883.39142	897.63715	-495.53238	805.35681	952.55536	-515.03314	828.46033	967.46649	-485.75369	849.67950	992.11011	-484.95398	878.27673	1018.66510	-679.33160	735.29633	1011.52069	-652.81763	794.96143	908.27600	-561.45746	750.46313	1075.84412	
4473	18.633	-473.34140	808.89722	911.18561	-525.83704	807.29126	941.37396	-571.86346	791.62524	969.13110	-512.73877	807.81250	909.84753	-539.92310	825.39063	916.38733	-554.47028	844.78357	878.57562	-569.27612	869.12726	874.37079	-487.71133	800.72412	946.42548	-503.83792	821.48560	965.56665	-471.27438	835.72485	990.81427	-463.78528	858.30536	1020.70514	-672.36224	730.66199	1003.11334	-644.86322	789.64178	900.42596	-554.65302	744.25092	1068.87427	
4474	18.638	-466.05502	805.81952	904.80658	-518.95929	803.47540	934.39648	-564.62012	788.82141	962.91089	-505.69168	803.93018	902.91016	-534.81744	818.58063	903.80005	-547.23279	829.69604	863.15875	-562.65643	850.88568	851.54907	-479.87811	796.27094	939.98663	-491.88898	813.53961	962.78680	-456.67560	819.93286	986.67035	-442.61194	834.73706	1018.31677	-664.97119	725.77209	994.73810	-637.58582	783.44482	893.16241	-548.20874	738.80060	1061.99170	
4475	18.642	-458.70880	802.88293	898.26520	-511.85312	800.20361	927.35358	-557.21136	786.30133	956.60883	-498.51321	800.04724	895.81580	-528.59857	810.83624	891.38300	-536.71399	813.22833	849.19305	-551.39301	829.51990	831.10193	-472.11359	792.20868	933.27368	-479.67120	804.90948	958.54224	-442.60281	803.09399	978.72797	-422.78094	809.13837	1009.80756	-657.11914	721.11328	987.11328	-630.90784	776.64697	886.64703	-542.14026	734.39240	1055.27844	
4476	18.646	-451.33566	800.02148	891.58405	-504.59760	797.44421	920.37799	-549.66437	784.05658	950.21027	-491.19781	796.32654	888.72003	-521.13202	802.51758	879.72870	-523.08704	796.43311	837.78180	-535.43622	806.37103	814.76422	-464.43533	788.66473	926.36621	-467.76071	795.94672	952.57086	-429.85645	786.31165	966.83673	-405.71713	783.33917	994.83813	-648.77856	717.00916	980.72357	-624.64795	769.70337	880.96283	-536.32513	731.30634	1048.86121	
4477	18.650	-443.93918	797.15698	884.78516	-497.22144	795.04132	913.51025	-542.00574	782.07886	943.70081	-483.72473	792.90961	881.68878	-512.66681	794.12195	869.30072	-507.17957	780.70496	829.57379	-515.69641	783.24268	803.84369	-456.80283	785.60059	919.35632	-456.61768	787.11871	945.00940	-419.20001	770.93097	951.67847	-392.59064	759.33362	974.30688	-639.96161	713.57654	975.70605	-618.57990	762.95996	876.03223	-530.51886	729.65790	1042.82678	
